:SAMPLES-PER-SECOND 30
:FRAME-RANGE 1-2045
:FULLY-SPECIFIED
:DEGREES
1087
root  -34.1493 32.8218 -58.4894 -174.956 24.9966 -177.981
RightUpLeg  -15.3242 2.09221 -13.3613
RightLeg  63.7334 2.7096 5.41731
RightFoot  -39.1447 3.76105 16.1938
RightToes  -5.28216e-011 1.2921e-014 -6.02303e-014
Spine  22.5472 2.43472 -5.02299
Spine1  1.86833 3.66618 -13.5092
HEad  -15.4522 4.03505 4.52666
LeftShoulder1  3.82862 -13.6477 -16.0598
LeftArm  -24.8563 -41.1194 -50.0462
LeftForeArm  -26.2541 -9.44706 -2.81731
LeftHand  0.379708 -2.57142 -5.34379
RightShoulder  1.32677 10.5096 1.45598
RightArm  -30.2732 78.6615 54.1143
RightForeArm  24.8353 10.0129 -6.48304
RightHand  -0.0230451 -4.53848 0.267963
LeftUpLeg  -48.8776 -0.610775 20.2157
LeftLeg  50.3341 -8.25127 -10.0816
LeftFoot  -8.01718 0.548941 -17.1607
LeftToes  9.43379e-011 5.24309e-011 -4.66411e-011
1088
root  -33.9004 33.1097 -59.0149 -173.661 24.0285 -178.68
RightUpLeg  -15.3613 -0.223204 -14.0275
RightLeg  62.7316 2.87156 5.51493
RightFoot  -37.7285 3.60478 16.3883
RightToes  -5.28216e-011 1.2921e-014 -6.02303e-014
Spine  22.0686 3.33889 -2.49679
Spine1  2.15156 5.72084 -16.0723
HEad  -17.2898 1.57331 4.53044
LeftShoulder1  3.622 -12.7089 -16.1035
LeftArm  -25.7777 -41.7948 -47.7342
LeftForeArm  -26.1619 -9.36427 -2.71911
LeftHand  0.387269 -1.8749 -6.04356
RightShoulder  1.36606 11.1382 1.29387
RightArm  -25.8375 79.2548 58.2648
RightForeArm  24.0037 8.67936 -6.76791
RightHand  -0.0289579 -4.81471 -0.11227
LeftUpLeg  -49.2556 -1.36547 19.4787
LeftLeg  49.3413 -8.16439 -9.62349
LeftFoot  -8.44502 0.477981 -16.8122
LeftToes  9.43379e-011 5.24309e-011 -4.66411e-011
1089
root  -33.6259 33.3596 -59.4904 -172.485 23.2551 -179.42
RightUpLeg  -15.1303 -2.17955 -14.7076
RightLeg  61.3189 3.27118 5.96854
RightFoot  -36.9478 3.49967 16.4209
RightToes  -5.28216e-011 1.2921e-014 -6.02303e-014
Spine  21.4961 4.32611 -0.106055
Spine1  3.07364 7.84716 -18.2338
HEad  -19.0806 -0.770411 4.11551
LeftShoulder1  3.3047 -11.7251 -15.4204
LeftArm  -27.75 -42.5159 -45.434
LeftForeArm  -24.9884 -9.09942 -2.26197
LeftHand  0.374145 -1.42993 -6.26028
RightShoulder  1.36357 11.6178 0.931313
RightArm  -20.2527 79.8036 64.6924
RightForeArm  22.7998 6.20145 -7.75747
RightHand  -0.0300766 -4.65394 -0.167436
LeftUpLeg  -49.563 -2.14381 18.8676
LeftLeg  48.4035 -7.9381 -9.04121
LeftFoot  -8.81952 0.41794 -16.5018
LeftToes  9.43379e-011 5.24309e-011 -4.66411e-011
1090
root  -33.337 33.561 -59.9214 -171.449 22.1802 179.71
RightUpLeg  -14.4937 -3.83042 -15.4038
RightLeg  59.5995 3.73769 6.40103
RightFoot  -36.7131 3.39875 16.1281
RightToes  -5.28216e-011 1.2921e-014 -6.02303e-014
Spine  21.1359 5.23505 1.62331
Spine1  3.97748 9.48146 -19.1523
HEad  -20.5319 -3.10244 3.01966
LeftShoulder1  3.06324 -11.0541 -14.7071
LeftArm  -29.7043 -42.6082 -41.7926
LeftForeArm  -24.113 -9.26063 -2.04872
LeftHand  0.390974 -0.985097 -7.05422
RightShoulder  1.41833 12.1517 0.978067
RightArm  -14.3525 79.1654 71.7984
RightForeArm  20.4245 4.73797 -8.25752
RightHand  -0.0353363 -4.78772 -0.0477869
LeftUpLeg  -49.9652 -3.19794 18.2881
LeftLeg  47.4573 -7.79934 -8.58364
LeftFoot  -9.17187 0.368761 -16.4906
LeftToes  9.43379e-011 5.24309e-011 -4.66411e-011
1091
root  -33.0442 33.7059 -60.2864 -170.782 20.8336 178.818
RightUpLeg  -13.4983 -5.07668 -15.933
RightLeg  58.0246 4.08595 6.59775
RightFoot  -36.7069 3.47323 16.4572
RightToes  -5.28216e-011 1.2921e-014 -6.02303e-014
Spine  21.4427 5.98902 2.89115
Spine1  4.65768 10.6047 -19.0715
HEad  -21.8612 -5.50959 1.97968
LeftShoulder1  2.65146 -9.91481 -13.3076
LeftArm  -30.6188 -43.0967 -38.9265
LeftForeArm  -24.5783 -9.08498 -2.01343
LeftHand  0.362303 -0.657426 -6.92445
RightShoulder  1.56203 12.9842 1.45194
RightArm  -10.9514 78.0373 76.3952
RightForeArm  18.3879 3.15916 -8.80764
RightHand  -0.0325622 -4.52385 -0.259378
LeftUpLeg  -50.241 -4.13131 17.6356
LeftLeg  46.647 -7.98826 -8.54746
LeftFoot  -9.47287 0.326176 -16.4428
LeftToes  9.43379e-011 5.24309e-011 -4.66411e-011
1092
root  -32.7758 33.7957 -60.6107 -169.971 19.6252 177.616
RightUpLeg  -13.362 -6.47403 -16.6805
RightLeg  57.4608 4.04727 6.38622
RightFoot  -36.6259 3.40008 16.188
RightToes  -5.28216e-011 1.2921e-014 -6.02303e-014
Spine  21.4624 6.75753 3.68084
Spine1  5.57745 11.56 -18.3398
HEad  -23.3394 -7.84562 0.411773
LeftShoulder1  2.3142 -8.96543 -11.9874
LeftArm  -31.1978 -43.1498 -35.6591
LeftForeArm  -24.2905 -9.82453 -2.37477
LeftHand  0.337587 -0.162571 -7.08925
RightShoulder  1.74007 13.3519 2.42779
RightArm  -8.76479 76.1512 80.289
RightForeArm  16.1218 2.16484 -9.20661
RightHand  -0.0221879 -3.7428 -0.130267
LeftUpLeg  -50.9054 -5.41726 16.9352
LeftLeg  45.8947 -7.79398 -8.11319
LeftFoot  -9.68396 0.299182 -16.5939
LeftToes  9.43379e-011 5.24309e-011 -4.66411e-011
1093
root  -32.5261 33.8489 -60.8905 -169.177 19.375 176.407
RightUpLeg  -14.2853 -7.4438 -17.4694
RightLeg  58.1408 3.7198 5.99966
RightFoot  -36.0075 3.22994 15.8173
RightToes  -5.28216e-011 1.2921e-014 -6.02303e-014
Spine  21.664 7.63678 4.10563
Spine1  6.25697 12.5176 -17.5027
HEad  -24.7311 -9.82948 -1.27224
LeftShoulder1  1.98838 -7.7729 -10.9786
LeftArm  -31.3062 -42.9038 -32.0534
LeftForeArm  -22.6933 -11.5413 -3.21157
LeftHand  0.271755 0.363678 -6.38178
RightShoulder  1.92286 13.6149 3.46999
RightArm  -7.65744 73.4226 83.5792
RightForeArm  13.9502 1.38955 -9.4202
RightHand  -0.00661924 -2.88598 0.435559
LeftUpLeg  -51.4108 -6.16594 16.3016
LeftLeg  45.38 -7.40878 -7.55828
LeftFoot  -10.0382 0.253539 -16.9276
LeftToes  9.43379e-011 5.24309e-011 -4.66411e-011
1094
root  -32.2898 33.8691 -61.1118 -168.61 20.0957 175.425
RightUpLeg  -15.8512 -7.99064 -18.1197
RightLeg  59.6966 3.27815 5.58464
RightFoot  -35.0569 3.15115 16.0627
RightToes  -5.28216e-011 1.2921e-014 -6.02303e-014
Spine  22.0534 8.45081 4.78489
Spine1  6.86528 13.6515 -17.3902
HEad  -25.2618 -10.8382 -2.86245
LeftShoulder1  1.68271 -6.48941 -10.1236
LeftArm  -31.7263 -42.8105 -29.1256
LeftForeArm  -20.128 -13.1259 -3.7961
LeftHand  0.291604 0.247536 -6.67152
RightShoulder  2.25143 14.1032 5.24553
RightArm  -8.14565 70.1875 84.4419
RightForeArm  11.5497 -0.0202334 -9.24079
RightHand  -0.0321676 -2.38815 -0.756437
LeftUpLeg  -51.48 -6.22572 15.8229
LeftLeg  45.1154 -6.8662 -6.9153
LeftFoot  -10.627 0.171931 -17.3083
LeftToes  9.43379e-011 5.24309e-011 -4.66411e-011
1095
root  -32.0788 33.8881 -61.306 -168.376 21.0504 174.774
RightUpLeg  -17.5199 -8.96022 -18.5223
RightLeg  61.9055 2.77172 5.11475
RightFoot  -33.3311 3.10708 17.0578
RightToes  -5.28216e-011 1.2921e-014 -6.02303e-014
Spine  22.5152 9.14561 5.82758
Spine1  7.66617 14.7015 -16.9884
HEad  -24.8212 -11.272 -4.37071
LeftShoulder1  1.50432 -5.74315 -9.50469
LeftArm  -31.8953 -43.0663 -27.1714
LeftForeArm  -16.9835 -14.056 -4.18005
LeftHand  0.284852 0.190149 -6.43785
RightShoulder  2.55519 14.3364 6.9934
RightArm  -9.62886 66.3466 84.5137
RightForeArm  10.6964 -1.24328 -8.97688
RightHand  -0.0470107 -1.30416 -1.14789
LeftUpLeg  -51.2081 -6.29493 15.6525
LeftLeg  45.0944 -6.25141 -6.26083
LeftFoot  -11.2061 0.0879133 -17.812
LeftToes  9.43379e-011 5.24309e-011 -4.66411e-011
1096
root  -31.8762 33.902 -61.4307 -168.455 21.7923 174.342
RightUpLeg  -19.5182 -10.5839 -18.8534
RightLeg  65.2357 2.38289 5.04628
RightFoot  -30.7321 2.84488 17.7565
RightToes  -5.28216e-011 1.2921e-014 -6.02303e-014
Spine  23.3952 9.19437 6.97137
Spine1  8.10197 15.0295 -16.4864
HEad  -24.6223 -10.7715 -5.76389
LeftShoulder1  1.38625 -5.30738 -8.91261
LeftArm  -31.2226 -43.0758 -26.1051
LeftForeArm  -15.2244 -14.7825 -4.5465
LeftHand  0.238115 0.571919 -5.87367
RightShoulder  2.83184 14.6418 8.44658
RightArm  -11.0261 62.4671 84.716
RightForeArm  10.1142 -2.68473 -8.78796
RightHand  -0.0547922 -0.28969 -1.2205
LeftUpLeg  -50.6549 -6.11038 15.4889
LeftLeg  45.0256 -5.91573 -5.89077
LeftFoot  -11.628 0.0236974 -18.082
LeftToes  9.43379e-011 5.24309e-011 -4.66411e-011
1097
root  -31.6665 33.9522 -61.4732 -168.497 22.5071 174.159
RightUpLeg  -22.526 -13.2855 -19.1108
RightLeg  69.6933 2.14265 5.66608
RightFoot  -26.4603 2.19613 17.7822
RightToes  -5.28216e-011 1.2921e-014 -6.02303e-014
Spine  24.2977 8.78718 7.90731
Spine1  8.17718 14.7234 -15.617
HEad  -24.6814 -10.1434 -6.45088
LeftShoulder1  1.36754 -5.36303 -8.55554
LeftArm  -30.3189 -43.1367 -25.6687
LeftForeArm  -13.5871 -14.6125 -4.77883
LeftHand  0.216277 0.853513 -5.72175
RightShoulder  3.09859 14.77 9.97094
RightArm  -12.1923 58.8834 84.8885
RightForeArm  9.07275 -3.99301 -8.54642
RightHand  -0.0705063 0.927618 -1.39413
LeftUpLeg  -49.8908 -4.89068 15.2079
LeftLeg  44.6091 -6.36306 -6.2684
LeftFoot  -11.7582 0.00347948 -18.1584
LeftToes  9.43379e-011 5.24309e-011 -4.66411e-011
1098
root  -31.4343 34.0282 -61.4656 -168.47 23.7267 174.399
RightUpLeg  -26.7476 -16.2927 -18.5259
RightLeg  74.0154 1.25933 3.98296
RightFoot  -22.3951 1.38121 15.7628
RightToes  -5.28216e-011 1.2921e-014 -6.02303e-014
Spine  25.0024 8.20932 8.82347
Spine1  8.20631 14.2316 -14.593
HEad  -24.5775 -9.91067 -5.46092
LeftShoulder1  1.42578 -5.89451 -8.24425
LeftArm  -28.9466 -43.3538 -25.9259
LeftForeArm  -12.4066 -13.838 -5.05728
LeftHand  0.213778 1.04284 -5.93731
RightShoulder  3.37371 14.6212 11.8371
RightArm  -14.5292 55.6057 83.7575
RightForeArm  9.53915 -4.08022 -8.28251
RightHand  -0.0542988 0.939198 -1.09423
LeftUpLeg  -48.873 -3.23464 15.3702
LeftLeg  44.1183 -6.75589 -6.56013
LeftFoot  -11.7702 0.00074009 -18.39
LeftToes  9.43379e-011 5.24309e-011 -4.66411e-011
